<svg xmlns="http://www.w3.org/2000/svg" xmlns:xlink="http://www.w3.org/1999/xlink" id="Layer_1" x="0px" y="0px" viewBox="0 0 1030.3 258.4" style="enable-background:new 0 0 1030.3 258.4;" xml:space="preserve"> <style type="text/css"> .st0{fill:#0038B8;} .st1{fill:url(#XMLID_00000036222823183559085100000000648463447591150499_);} </style> <g> <g id="XMLID_00000069376008960075500280000006162010738805770674_"> <path id="XMLID_00000115496433348592932340000007167253463200989333_" class="st0" d="M76.4,166.4l32.7,4.1 c4.3,0.5,7.7,3.2,7.7,7.1v42.3c0,4.2-3.7,7.6-8.4,7.6h0c-1.3,0-2.5-0.2-3.7-0.8l-26.6-9.5c-9.5-3.5-11.8-3.6-11.8-16.1v-28.2 C66.4,168.1,71,165.6,76.4,166.4"></path> <path id="XMLID_00000148656746907938423890000011230567037622286230_" class="st0" d="M26.3,73.6l20.6-7.8 c5.8-2.2,12.4-0.4,12.4,5.2V102c0,4.1-3.3,7.6-7.8,8.3l-20.8,3c-5.4,0.7-10-4-10-8.8V79C20.7,75.9,23.1,74.8,26.3,73.6"></path> <path id="XMLID_00000006704793166241949110000010346242488127192509_" class="st0" d="M27.8,117.9l21.3-2.5 c5.2-0.5,9.9,2.7,9.9,7.4v26.1c0,4.8-4.9,9.5-10.2,8.8l-21.2-2.1c-4.4-0.5-7.1-5.3-7.1-9.3l0.1-21.6 C20.6,120.7,23.3,118.3,27.8,117.9"></path> <path id="XMLID_00000137829727551242044920000013415967750426307258_" class="st0" d="M30.2,160.4l21.7,2.8 c4.3,0.5,7.3,2.5,7.3,6.4V199c0,4.6,0,12.1-12.4,7.5l-21.9-7.8c-3.3-1.2-4.4-4.7-4.4-7.8v-24.1C20.5,161.8,24.9,159.6,30.2,160.4"></path> <path id="XMLID_00000084532156123641199860000003735798055764663466_" class="st0" d="M116.7,51v44.9c0,3.9-3.5,6.3-7.9,6.8 l-32.5,4.8c-4.8,0.6-9.2-2.4-9.9-6.7c0-0.3-0.1-0.7-0.1-1.1L66.4,66c0.4-5,2.3-7.3,9-10.2l29.2-11.1 C110.4,42.6,116.7,45.4,116.7,51"></path> <path id="XMLID_00000039845119249855622450000012438445736912270510_" class="st0" d="M74.2,113.1l32.7-4c5.2-0.5,9.9,4,9.9,8.7 V156c0,4.4-4,7.9-8.9,7.9c-0.4,0-0.8,0-1.2-0.1l-32.7-3.3c-4.4-0.5-7.6-4.6-7.6-8.6v-31.1C66.4,116.9,69.7,113.5,74.2,113.1"></path> <path id="XMLID_00000157289452450909307170000002074116913667062437_" class="st0" d="M215.5,74.3l-20.6-7.8 c-5.8-2.3-12.3-0.4-12.3,5.2v31.1c0,4.1,3.3,7.6,7.8,8.3l20.8,2.9c5.4,0.7,10-4,10-8.8V79.8C221.1,76.6,218.7,75.5,215.5,74.3"></path> <path id="XMLID_00000096048210688803531370000015450273183856323995_" class="st0" d="M214,118.7l-21.3-2.5 c-5.2-0.5-9.9,2.7-9.9,7.4v26.1c0,4.8,4.9,9.5,10.2,8.8l21.2-2.1c4.4-0.5,7.1-5.3,7.1-9.3l-0.1-21.5 C221.1,121.5,218.5,119.1,214,118.7"></path> <path id="XMLID_00000026135126953252840790000017330388378422415249_" class="st0" d="M211.5,161.2l-21.7,2.8 c-4.3,0.5-7.3,2.5-7.3,6.4v29.3c0,4.6,0,12.1,12.4,7.5l21.9-7.8c3.3-1.2,4.4-4.7,4.4-7.8v-24.1C221.3,162.6,217,160.4,211.5,161.2 "></path> <path id="XMLID_00000142164568628101730220000015855117541486852266_" class="st0" d="M125,51.7v44.9c0,3.9,3.5,6.3,7.9,6.8 l32.5,4.8c4.8,0.6,9.2-2.5,9.9-6.8c0,0,0,0,0-0.1c0-0.3,0.1-0.7,0.1-1l-0.1-33.8c-0.4-5-2.3-7.3-9-10.2l-29.2-11.1 C131.4,43.5,125,46.2,125,51.7"></path> <path id="XMLID_00000016041537142768314040000014308185662920161203_" class="st0" d="M167.6,113.8l-32.5-4 c-5.2-0.5-9.9,4-9.9,8.7v38.1c0,4.4,4,7.9,8.9,7.9c0.4,0,0.8,0,1.2-0.1l32.6-3.3c4.4-0.5,7.6-4.6,7.6-8.6v-31 C175.5,117.6,172.1,114.2,167.6,113.8"></path> <path id="XMLID_00000078767067548476803920000011774255264907573389_" class="st0" d="M165.4,167.1l-32.7,4.1 c-4.3,0.7-7.7,3.2-7.7,7.1v42.3c0,4.2,3.7,7.6,8.4,7.6h0c1.3,0,2.5-0.2,3.7-0.8l26.6-9.5c9.5-3.5,11.8-3.6,11.7-16.1v-28.2 C175.5,168.9,170.7,166.4,165.4,167.1"></path> </g> <g id="XMLID_00000000208524954961756350000001976867509150241163_"> <polygon id="XMLID_00000039091789018743404240000010640495485603017656_" class="st0" points="400,75.5 400,80.9 379.8,80.9 379.8,124.2 373.6,124.2 373.6,80.9 353.7,80.9 353.7,75.5 "></polygon> <path id="XMLID_00000056408240399535144150000000285742430272832930_" class="st0" d="M494.4,81h-4.1c-2,0-3.9,0-6.1,0.2 c-1.8,0-3.6,0.5-5,1.4c-1.1,0.6-1.9,1.6-2.1,2.7c-0.5,2.4-0.5,5,0,7.4c0.3,1.1,1,2.1,2.1,2.7c1.5,0.8,3.3,1.3,5,1.4 c2.1,0.2,4.1,0.2,6.1,0.2h8.5c1.5,0,2.9,0.2,4.4,0.3c1.4,0.2,2.8,0.4,4.1,0.8c1.2,0.3,2.2,0.8,3.3,1.4c0.9,0.6,1.5,1.3,2.1,2.1 c0.6,0.8,1,1.8,1.3,2.7c0.3,1,0.4,2.1,0.4,3.1c0,1.1,0.2,2.1,0.2,3.1c0,1.1,0,2.1-0.2,3.1c0.1,2-0.5,4-1.5,5.6 c-0.5,0.8-1.2,1.6-2.1,2.1c-1,0.6-2.1,1.1-3.3,1.5c-1.4,0.4-2.7,0.6-4.1,0.8c-1.5,0.2-2.9,0.2-4.4,0.3h-12.8 c-1.5,0-2.9-0.1-4.4-0.3c-1.4-0.2-2.8-0.4-4.1-0.8c-1.2-0.3-2.3-0.8-3.3-1.5c-0.9-0.5-1.5-1.3-2-2.1c-0.6-1.1-0.9-2.3-0.9-3.5h7.1 c0.4,0.7,1.1,1.3,1.9,1.7c0.9,0.4,1.8,0.6,2.8,0.8c1.1,0.2,2.3,0.2,3.4,0.3h7.8c2,0,3.9,0,6.1-0.2c1.8,0,3.6-0.5,5-1.4 c1.1-0.6,2-1.6,2.2-2.7c0.3-1.2,0.5-2.4,0.5-3.7c0-1.3-0.2-2.5-0.5-3.7c-0.3-1.1-1.1-2.1-2.2-2.7c-1.5-0.9-3.3-1.4-5-1.4 c-2.1-0.2-4.1-0.2-6.1-0.2h-8.5c-1.5,0-2.9-0.2-4.4-0.3c-1.4-0.2-2.8-0.4-4.1-0.8c-1.2-0.3-2.3-0.8-3.3-1.4 c-0.9-0.6-1.5-1.3-2.1-2.1c-0.5-0.8-0.9-1.8-1.2-2.6c-0.3-1-0.4-2.1-0.4-3.1c0-1.1-0.2-2.1-0.2-3.1c0-1.1,0-2.1,0.2-3.1 c0-1,0.2-2.1,0.4-3.1c0.3-0.9,0.6-1.8,1.2-2.6c0.5-0.8,1.2-1.6,2.1-2.1c1-0.7,2.1-1.2,3.3-1.5c1.4-0.4,2.7-0.6,4.1-0.8 c1.5-0.2,2.9-0.2,4.4-0.3h12.8c1.5,0,2.9,0.1,4.4,0.3c1.4,0.2,2.8,0.4,4.1,0.8c1.2,0.4,2.2,0.9,3.3,1.5c0.9,0.6,1.6,1.4,2.1,2.4 c0.6,1.1,0.9,2.2,1,3.4h-7.1c-0.4-0.8-1-1.3-1.9-1.7c-0.9-0.4-2-0.7-3-0.9c-1.2-0.2-2.4-0.2-3.7-0.3L494.4,81z"></path> <polygon id="XMLID_00000157288647431462940390000002922216709526801537_" class="st0" points="571.1,75.5 595.4,117.8 619.5,75.5 627.2,75.5 627.2,124.2 621,124.2 621,85.7 599.2,124.2 591.2,124.2 569.4,85.7 569.4,124.2 563.1,124.2 563.1,75.5 "></polygon> <polygon id="XMLID_00000114036590145626322930000014048191765909270707_" class="st0" points="736.9,75.5 736.9,80.9 702.2,80.9 702.2,94.2 733.6,94.2 733.6,99.6 702.2,99.6 702.2,118.6 736.9,118.6 736.9,124.2 696,124.2 696,75.5 "></polygon> <path id="XMLID_00000170262245295378009310000015132297748641278879_" class="st0" d="M768.7,81.1h-4.1c-1.9,0-3.9,0-6.1,0.2 c-1.8,0-3.6,0.5-5,1.4c-1.1,0.6-1.9,1.6-2.1,2.7c-0.5,2.4-0.5,5,0,7.4c0.3,1.1,1,2.1,2.1,2.7c1.5,0.9,3.3,1.4,5,1.4 c2.1,0.2,4.1,0.2,6.1,0.2h8.5c1.5,0,2.9,0.2,4.4,0.3c1.4,0.1,2.7,0.4,3.9,0.8c1.2,0.3,2.2,0.8,3.3,1.4c0.9,0.6,1.5,1.3,2.1,2.1 c0.5,0.8,0.9,1.7,1.2,2.6c0.3,1,0.4,2.1,0.4,3.1c0,1.1,0.2,2.1,0.2,3.1c0,1.1,0,2.1-0.2,3.1c0,1-0.2,2.1-0.4,3.1 c-0.3,0.9-0.7,1.8-1.2,2.6c-0.5,0.8-1.2,1.6-2.1,2.1c-1,0.6-2.1,1.1-3.3,1.5c-1.3,0.4-2.7,0.6-3.9,0.8c-1.5,0.2-2.9,0.2-4.4,0.3 h-12.7c-1.5,0-2.9-0.1-4.4-0.3c-1.4-0.2-2.8-0.4-4.1-0.8c-1.2-0.3-2.3-0.8-3.3-1.5c-0.9-0.5-1.5-1.3-2-2.1 c-0.6-1.1-0.9-2.3-0.9-3.5h7.1c0.4,0.8,1,1.3,1.9,1.7c0.9,0.4,1.8,0.7,2.8,0.8c1.1,0.2,2.3,0.2,3.4,0.3h7.6c2,0,3.9,0,6.1-0.2 c1.8,0,3.6-0.5,5-1.4c1.1-0.6,2-1.6,2.2-2.7c0.3-1.2,0.5-2.4,0.5-3.7c0-1.3-0.2-2.5-0.5-3.7c-0.3-1.1-1.1-2.1-2.2-2.7 c-1.5-0.9-3.3-1.4-5-1.4c-2.1-0.2-4.1-0.2-6.1-0.2h-8.5c-1.5,0-2.9-0.2-4.4-0.3c-1.4-0.2-2.8-0.4-4.1-0.8 c-1.2-0.3-2.3-0.8-3.3-1.4c-0.9-0.6-1.5-1.3-2.1-2.1c-0.5-0.8-0.9-1.8-1.2-2.6c-0.3-1-0.4-2.1-0.4-3.1c0-1.1-0.2-2.1-0.2-3.1 c0-1.1,0-2.1,0.2-3.1c0-1,0.2-2.1,0.4-3.1c0.3-0.9,0.6-1.8,1.2-2.6c0.5-0.8,1.3-1.6,2.1-2.1c0.9-0.7,2.1-1.2,3.3-1.5 c1.4-0.4,2.7-0.6,4.1-0.8c1.5-0.2,2.9-0.2,4.4-0.3H773c1.5,0,2.9,0.1,4.4,0.3c1.4,0.2,2.7,0.4,3.9,0.8c1.2,0.4,2.2,0.9,3.3,1.5 c0.9,0.6,1.6,1.4,2.1,2.4c0.6,1.1,0.9,2.2,1,3.4h-7.1c-0.4-0.8-1-1.3-1.9-1.7c-0.9-0.4-2-0.7-3-0.9c-1.2-0.2-2.4-0.2-3.7-0.3 L768.7,81.1L768.7,81.1z"></path> <polygon id="XMLID_00000130622938274941702790000004903942420196924557_" class="st0" points="839.1,75.5 839.1,80.9 818.8,80.9 818.8,124.2 812.8,124.2 812.8,80.9 792.6,80.9 792.6,75.5 "></polygon> <path id="XMLID_00000099621738776722182230000013330115037824656571_" class="st0" d="M299.8,89.1c-0.3-1.7-0.9-3.4-1.5-4.9 c-0.7-1.5-1.7-2.9-3.1-4c-1.4-1.1-3-2-4.7-2.6c-1.9-0.6-3.8-1.1-5.7-1.4c-2.1-0.3-4.1-0.5-6.2-0.5c-2.1,0-4.2-0.2-6.2-0.2H249 v48.6h23.2c2,0,4.1,0,6.2-0.2c2.1-0.1,4.2-0.2,6.2-0.5c2-0.3,3.9-0.8,5.7-1.4c1.7-0.6,3.3-1.5,4.7-2.6c1.3-1.1,2.4-2.5,3.1-4 c0.7-1.6,1.2-3.2,1.5-4.9c0.3-1.8,0.5-3.5,0.5-5.3c0-1.8,0.2-3.7,0.2-5.4c0-1.8,0-3.5-0.2-5.4C300.4,92.6,300.2,90.9,299.8,89.1 M294.1,104.1c0,1.4-0.2,2.7-0.4,4.1c-0.3,1.3-0.7,2.5-1.3,3.7c-0.6,1.2-1.5,2.3-2.6,3.1c-1,0.9-2.3,1.7-3.7,2.1 c-1.5,0.5-3,0.9-4.5,1.1c-1.6,0.2-3.3,0.4-5,0.4h-21.9V81h17c1.5,0,3.3,0,5,0.2c1.6,0,3.3,0.2,5,0.3c1.5,0.2,3,0.6,4.5,1.1 c2.7,1,4.9,2.8,6.1,5.1c0.6,1.2,0.9,2.4,1.3,3.7c0.3,1.4,0.4,2.7,0.4,4.1v4.3C293.9,101.3,294.2,102.7,294.1,104.1"></path> <path id="XMLID_00000183959898473068831640000005528182082082311838_" class="st0" d="M327.4,75.5l-23.2,48.6h6.8l7.3-15.3h26.1 l7.3,15.3h6.9l-23.3-48.6H327.4z M320.8,103.5l10.6-21.9l10.4,21.9H320.8z"></path> <path id="XMLID_00000062180004832315326220000003403127219075878035_" class="st0" d="M463.4,89.2c-0.3-1.7-0.9-3.4-1.5-4.9 c-1.4-3.1-4.2-5.6-7.6-6.8c-1.8-0.6-3.8-1.1-5.6-1.4c-2-0.3-4-0.5-6.1-0.5c-2.1,0-4.1-0.2-6.1-0.2H430c-2,0-4.1,0-6.1,0.2 c-2.1,0.1-4.2,0.2-6.2,0.5c-2,0.3-3.8,0.8-5.6,1.4c-3.4,1.2-6.2,3.6-7.4,6.6c-0.7,1.6-1.2,3.2-1.5,4.9c-0.3,1.8-0.4,3.6-0.4,5.4 c0,1.9-0.2,3.7-0.2,5.4c0,1.8,0,3.5,0.2,5.4c0.1,1.8,0.3,3.5,0.5,5.3c0.3,1.7,0.9,3.4,1.5,4.9c0.7,1.5,1.7,2.9,3,4 c1.3,1.1,2.8,2.1,4.5,2.6c1.8,0.6,3.8,1.1,5.6,1.4c2.1,0.3,4.1,0.5,6.2,0.5c2.1,0,4.1,0.2,6.1,0.2h6.4c2,0,4.1,0,6.1-0.2 c2.1-0.1,4-0.2,6.1-0.5c2-0.3,3.9-0.8,5.6-1.4c3.4-1.2,6.2-3.7,7.6-6.6c0.7-1.6,1.2-3.2,1.5-4.9c0.3-1.8,0.5-3.5,0.5-5.3 c0-1.8,0.2-3.7,0.2-5.4c0-1.8,0-3.5-0.2-5.4C464,92.7,463.7,91,463.4,89.2 M457.6,104.2c0,1.4-0.2,2.7-0.4,4.1 c-0.3,1.3-0.7,2.5-1.3,3.7c-0.5,1.1-1.3,2.2-2.2,3.1c-1,0.9-2.2,1.6-3.5,2.1c-1.4,0.5-2.8,0.9-4.4,1.1c-1.5,0.2-3.1,0.4-4.7,0.3 h-15.8c-1.6,0-3.3-0.2-4.8-0.3c-1.5-0.2-2.9-0.6-4.4-1.1c-1.3-0.5-2.5-1.2-3.5-2.1c-1-0.9-1.8-2-2.4-3.1c-0.6-1.2-0.9-2.4-1.3-3.7 c-0.3-1.4-0.4-2.7-0.4-4.1v-8.3c0-1.4,0.2-2.7,0.4-4.1c0.3-1.3,0.8-2.5,1.3-3.7c0.6-1.1,1.4-2.2,2.4-3.1c1-0.9,2.2-1.6,3.5-2.1 c1.4-0.5,2.8-0.8,4.4-1.1c1.6-0.2,3.2-0.4,4.8-0.4c1.7,0,3.3-0.2,4.8-0.2h6.4c1.5,0,3.1,0,4.7,0.2c1.5,0,3.2,0.2,4.7,0.4 c1.5,0.2,2.9,0.6,4.4,1.1c2.7,0.9,4.8,2.7,5.9,5.1c0.5,1.2,0.9,2.4,1.3,3.7c0.3,1.4,0.4,2.7,0.4,4.1c0,1.4,0.2,2.7,0.2,4.1 C458.1,101.3,457.9,102.7,457.6,104.2"></path> <path id="XMLID_00000058562077211945328440000009194785709754514836_" class="st0" d="M657.4,75.5l-23.2,48.6h6.8l7.3-15.3h26.1 l7.3,15.3h6.8l-23.2-48.6H657.4z M650.7,103.5l10.5-21.9l10.4,21.9H650.7z"></path> <path id="XMLID_00000064322660177343743320000014828659718288993951_" class="st0" d="M885.2,101.6c1.3-0.4,2.5-1,3.5-1.8 c0.9-0.6,1.5-1.3,2.1-2.1c0.6-0.8,0.9-1.7,1.2-2.6c0.3-1,0.4-2.1,0.4-3.1c0-1.1,0.2-2,0.2-3.1c0-1.1,0-2.1-0.2-3.1 c0-1-0.2-2.1-0.4-3.1c-0.3-0.9-0.7-1.8-1.2-2.7c-0.5-0.8-1.2-1.6-2.1-2.1c-1-0.6-2.2-1.1-3.4-1.5c-1.4-0.4-2.7-0.6-4.2-0.8 c-1.5-0.2-3-0.2-4.5-0.3h-30.9v48.6h6.2v-21.8h23.2l11.8,21.8h7.8l-12.3-21.9C883.4,102.3,884.3,102,885.2,101.6 M878.4,96.8 c-1,0.1-2.1,0.2-3.1,0.2H852V81h23.4c1.2,0,2.1,0.2,3.1,0.2c1,0.2,1.9,0.3,2.8,0.5c0.9,0.2,1.6,0.5,2.4,0.9c1.1,0.6,2,1.6,2.2,2.7 c0.3,1.2,0.5,2.4,0.5,3.7c0,1.2-0.2,2.5-0.5,3.7c-0.3,1.1-1.1,2.1-2.2,2.7c-0.8,0.4-1.5,0.7-2.4,0.9 C880.3,96.6,879.2,96.8,878.4,96.8"></path> <path id="XMLID_00000177466588940097618350000014618377317623945620_" class="st0" d="M962.5,94.4c-0.1-1.8-0.3-3.6-0.5-5.4 c-0.3-1.7-0.9-3.4-1.5-4.9c-0.7-1.5-1.7-2.9-2.9-4c-1.3-1.1-2.8-2.1-4.5-2.6c-1.8-0.6-3.8-1.1-5.6-1.4c-2-0.3-4-0.5-6.1-0.5 c-2.1,0-4.1-0.2-6.1-0.2h-6.4c-2,0-3.9,0-6.1,0.2c-2.1,0.1-4.2,0.2-6.2,0.5c-2,0.3-3.9,0.8-5.6,1.4c-3.5,1.2-6.2,3.7-7.6,6.8 c-0.7,1.6-1.2,3.2-1.5,4.9c-0.3,1.8-0.5,3.6-0.5,5.4c0,1.8-0.2,3.7-0.2,5.4c0,1.8,0,3.5,0.2,5.4c0.1,1.8,0.3,3.5,0.5,5.3 c0.3,1.7,0.9,3.4,1.5,4.9c1.4,3.1,4.1,5.5,7.6,6.6c1.8,0.6,3.8,1.1,5.6,1.4c2.1,0.3,4.1,0.5,6.2,0.5c2.1,0,4.1,0.2,6.1,0.2h6.4 c2,0,3.9,0,6.1-0.2c2.1-0.1,4-0.2,6.1-0.5c2-0.3,3.8-0.8,5.6-1.4c3.4-1.2,6.1-3.6,7.4-6.6c0.7-1.6,1.2-3.2,1.5-4.9 c0.3-1.8,0.5-3.5,0.5-5.3c0-1.8,0.2-3.7,0.2-5.4C962.7,98.1,962.7,96.2,962.5,94.4 M956.5,104c0,1.4-0.2,2.7-0.3,4.1 c-0.3,1.3-0.7,2.5-1.2,3.7c-0.5,1.2-1.4,2.3-2.4,3.1c-1,0.9-2.2,1.6-3.5,2.1c-1.4,0.5-2.8,0.9-4.4,1.1c-1.5,0.2-3.1,0.4-4.7,0.3 h-16.1c-1.6,0-3.3-0.2-4.8-0.3c-1.5-0.2-2.9-0.6-4.4-1.1c-1.3-0.5-2.5-1.2-3.5-2.1c-1-0.9-1.8-2-2.4-3.1c-0.6-1.2-0.9-2.4-1.3-3.7 c-0.3-1.4-0.4-2.7-0.4-4.1v-8.3c0-1.4,0.2-2.7,0.4-4.1c0.3-1.3,0.7-2.5,1.3-3.7c0.6-1.1,1.4-2.2,2.4-3.1c1-0.9,2.2-1.6,3.5-2.1 c1.4-0.5,2.8-0.8,4.4-1.1c1.6-0.2,3.2-0.4,4.8-0.3c1.7,0,3.3-0.2,4.8-0.2h6.3c1.5,0,3.1,0,4.6,0.2c1.5,0,3.1,0.2,4.6,0.3 c1.5,0.2,2.9,0.6,4.4,1.1c1.4,0.4,2.6,1.1,3.5,2.1c1,0.9,1.8,2,2.4,3.1c0.6,1.2,0.9,2.4,1.2,3.7c0.3,1.4,0.4,2.7,0.3,4.1 c0,1.4,0.2,2.7,0.2,4.1C956.3,101.2,956.4,102.5,956.5,104"></path> <path id="XMLID_00000016050068747484052500000005337999349355075747_" class="st0" d="M994.6,81.1h-4.1c-2,0-3.9,0-6.1,0.2 c-1.8,0-3.6,0.5-5,1.4c-1.1,0.6-1.9,1.6-2.1,2.7c-0.5,2.4-0.5,5,0,7.4c0.3,1.1,1,2.1,2.1,2.7c1.5,0.9,3.3,1.4,5,1.4 c2.1,0.2,4.1,0.2,6.1,0.2h8.5c1.5,0,2.9,0.2,4.4,0.3c1.4,0.2,2.7,0.4,4.1,0.8c1.2,0.3,2.2,0.8,3.3,1.4c0.9,0.6,1.5,1.3,2.1,2.1 c0.5,0.8,0.9,1.7,1.2,2.6c0.3,1,0.4,2.1,0.4,3.1c0,1.1,0.2,2.1,0.2,3.1c0,1.1,0,2.1-0.2,3.1c0,1.1-0.3,2-0.4,3.1 c-0.3,0.9-0.7,1.8-1.2,2.6c-0.5,0.8-1.2,1.6-2.1,2.1c-1,0.6-2.1,1.1-3.3,1.5c-1.4,0.4-2.7,0.6-4.1,0.8c-1.5,0.2-2.9,0.2-4.4,0.3 h-12.8c-1.5,0-2.9-0.1-4.4-0.3c-1.4-0.2-2.7-0.4-4.1-0.8c-1.2-0.3-2.3-0.8-3.3-1.5c-0.9-0.5-1.5-1.3-2-2.1 c-0.6-1.1-0.9-2.3-0.9-3.5h7.1c0.4,0.8,1,1.3,1.9,1.7c0.9,0.4,1.8,0.6,2.8,0.8c1.1,0.2,2.3,0.2,3.4,0.3h7.8c2,0,3.9,0,6.1-0.2 c1.8,0,3.6-0.5,5-1.4c1.1-0.6,2-1.6,2.2-2.7c0.3-1.2,0.5-2.4,0.5-3.7c0-1.3-0.2-2.5-0.5-3.7c-0.3-1.1-1.1-2.1-2.2-2.7 c-1.5-0.9-3.3-1.4-5-1.4c-2.1-0.2-4.1-0.2-6.1-0.2h-8.5c-1.5,0-2.9-0.2-4.4-0.3c-1.4-0.2-2.7-0.4-4.1-0.8 c-1.2-0.3-2.3-0.8-3.3-1.4c-0.9-0.6-1.5-1.3-2.1-2.1c-0.5-0.8-0.9-1.8-1.2-2.6c-0.3-1-0.4-2.1-0.3-3.1c0-1.1-0.2-2.1-0.2-3.1 c0-1.1,0-2.1,0.2-3.1c0-1,0.2-2.1,0.3-3.1c0.3-0.9,0.6-1.8,1.2-2.6c0.5-0.8,1.2-1.6,2.1-2.1c0.9-0.7,2.1-1.2,3.3-1.5 c1.4-0.4,2.7-0.6,4.1-0.8c1.5-0.2,2.9-0.2,4.4-0.3H999c1.5,0,2.9,0.1,4.4,0.3c1.4,0.2,2.7,0.4,4.1,0.8c1.2,0.4,2.2,0.9,3.3,1.5 c0.9,0.6,1.6,1.4,2.1,2.4c0.6,1.1,0.9,2.2,1,3.4h-7.1c-0.4-0.8-1-1.3-1.9-1.7c-0.9-0.4-2-0.7-2.9-0.9c-1.2-0.2-2.4-0.2-3.7-0.3 L994.6,81.1L994.6,81.1z"></path> <path id="XMLID_00000010308313743604471020000010600838908478246274_" class="st0" d="M422.8,173.7h-21.1v4.2c0,2,0.8,3.4,2.3,4.2 c1.6,0.8,3.9,1.2,6.9,1.2c3,0,6.5-0.5,10.6-1.4v4c-3.9,0.8-7.7,1.2-11.4,1.2c-9.6,0-14.4-2.9-14.4-8.6v-11.1 c0-3.4,1.1-5.9,3.3-7.3c2.2-1.5,5.7-2.2,10.6-2.2c4.5,0,7.9,0.7,10,2.1c2.1,1.4,3.1,3.9,3.1,7.4V173.7z M417,170.3v-4.4 c0-1.7-0.6-2.9-1.8-3.5c-1.2-0.6-3.1-1-5.8-1c-2.6,0-4.5,0.3-5.8,0.9c-1.3,0.6-1.9,1.8-1.9,3.5v4.4H417z"></path> <path id="XMLID_00000116929760658890999460000004667584033638833304_" class="st0" d="M458.8,186.6h-5.8v-20.3 c0-0.7-0.1-1.3-0.2-1.7c-0.1-0.5-0.4-0.9-0.8-1.4c-0.4-0.5-1.1-0.8-2.1-1.1c-1-0.3-2.2-0.4-3.7-0.4c-3.4,0-5.7,0.3-6.9,1 c-1.2,0.7-1.8,1.9-1.8,3.6v20.3h-5.8v-28h5.8v3.4c0.6-2.7,4-4,10.3-4c4.2,0,7,0.7,8.6,2c1.6,1.3,2.3,3.3,2.3,6V186.6z"></path> <path id="XMLID_00000116202669036597928910000011398141243713625022_" class="st0" d="M488.6,186.7c-2.1,0.3-4.3,0.5-6.6,0.5 c-3.9,0-6.7-0.6-8.2-1.8c-1.6-1.2-2.3-3.5-2.3-6.9V162h-7v-3.4h7v-8.7h5.9v8.7h11.2v3.4h-11.2v16.7c0,2,0.4,3.3,1.3,4 c0.9,0.7,2.6,1,5.3,1c0.7,0,2.2-0.2,4.7-0.5V186.7z"></path> <path id="XMLID_00000113345451029109090410000008096702004688764295_" class="st0" d="M500.8,153.9H495v-5.4h5.8V153.9z M500.8,186.6H495v-28h5.8V186.6z"></path> <path id="XMLID_00000031189053862766944970000016772485052626429063_" class="st0" d="M530.7,186.7c-2.1,0.3-4.3,0.5-6.6,0.5 c-3.9,0-6.7-0.6-8.2-1.8c-1.6-1.2-2.3-3.5-2.3-6.9V162h-7v-3.4h7v-8.7h5.9v8.7h11.2v3.4h-11.2v16.7c0,2,0.4,3.3,1.3,4 c0.9,0.7,2.6,1,5.3,1c0.7,0,2.2-0.2,4.7-0.5V186.7z"></path> <polygon id="XMLID_00000163770958203348461990000015397339963156873639_" class="st0" points="561.4,158.5 545.6,198.6 539.5,198.6 544.5,187 532.3,158.5 538.7,158.5 547.5,181.4 547.6,181.4 555.5,158.5 "></polygon> <path id="XMLID_00000152958254543351828380000005849298925918783421_" class="st0" d="M598.7,162.4h-3.2c-2.7,0-4.7,0.3-5.9,0.9 c-1.3,0.6-1.9,1.8-1.9,3.5v19.7h-5.8v-28h5.5v4.6c0-1.4,0.9-2.5,2.8-3.6c1.9-1,3.8-1.6,5.7-1.6h2.9V162.4z"></path> <path id="XMLID_00000183209037067273783990000005186239022194764179_" class="st0" d="M630.4,173.7h-21.1v4.2c0,2,0.8,3.4,2.3,4.2 c1.6,0.8,3.9,1.2,6.9,1.2c3,0,6.5-0.5,10.6-1.4v4c-3.9,0.8-7.7,1.2-11.4,1.2c-9.6,0-14.4-2.9-14.4-8.6v-11.1 c0-3.4,1.1-5.9,3.3-7.3c2.2-1.5,5.7-2.2,10.6-2.2c4.5,0,7.9,0.7,10,2.1c2.1,1.4,3.1,3.9,3.1,7.4V173.7z M624.5,170.3v-4.4 c0-1.7-0.6-2.9-1.8-3.5c-1.2-0.6-3.1-1-5.8-1c-2.6,0-4.5,0.3-5.8,0.9c-1.3,0.6-1.9,1.8-1.9,3.5v4.4H624.5z"></path> <path id="XMLID_00000098907704092260241670000003684873011247263894_" class="st0" d="M662.6,176.7v2.4c0,3-1.2,5.1-3.5,6.2 c-2.4,1.2-5.7,1.7-10.2,1.7c-3.4,0-7-0.2-10.8-0.7v-4c5.2,0.7,8.8,1.1,10.9,1.1c2.6,0,4.5-0.2,5.8-0.7c1.3-0.4,1.9-1.4,1.9-2.7 v-2.8c0-1.2-0.5-2-1.4-2.5c-0.9-0.5-2.4-0.8-4.4-0.8h-3.6c-3.3,0-5.8-0.6-7.5-1.8c-1.7-1.2-2.5-2.9-2.5-5v-2.6 c0-4.4,4.7-6.6,14-6.6c1,0,4.2,0.2,9.5,0.5v3.8c-3.7-0.5-7-0.8-9.8-0.8c-3.1,0-5.2,0.3-6.3,0.8c-1.1,0.5-1.7,1.4-1.7,2.7v2.4 c0,1.9,1.9,2.8,5.8,2.8h3.6C659.3,170.1,662.6,172.3,662.6,176.7"></path> <path id="XMLID_00000134956007025828155710000010132736743757719729_" class="st0" d="M698.4,168v9.7c0,1.7-0.2,3.2-0.7,4.4 c-0.5,1.2-1.1,2.1-1.8,2.8c-0.7,0.7-1.8,1.2-3.1,1.5c-1.4,0.3-2.7,0.6-3.9,0.6c-1.2,0.1-2.9,0.1-4.9,0.1c-2.6,0-4.6-0.1-6.1-0.2 c-1.5-0.2-2.9-0.5-4.3-1.1c-1.5-0.6-2.5-1.6-3.1-2.9c-0.6-1.3-0.9-3-0.9-5.2V168c0-1.9,0.2-3.4,0.7-4.7c0.5-1.3,1.1-2.3,1.8-3 c0.7-0.7,1.8-1.2,3.1-1.6c1.4-0.4,2.7-0.6,3.9-0.7c1.2-0.1,2.8-0.1,4.9-0.1c2.1,0,3.7,0,4.9,0.1c1.2,0.1,2.5,0.3,3.9,0.7 c1.4,0.4,2.4,0.9,3.1,1.6c0.7,0.7,1.3,1.7,1.8,3C698.1,164.6,698.4,166.1,698.4,168 M692.4,178.5v-11.3c0-2.6-0.6-4.2-1.8-4.8 c-1.2-0.6-3.4-0.9-6.7-0.9c-3.3,0-5.6,0.3-6.7,0.9c-1.2,0.6-1.8,2.2-1.8,4.8v11.3c0,1.2,0.2,2.2,0.5,3c0.3,0.7,0.9,1.3,1.7,1.6 c0.8,0.3,1.7,0.5,2.5,0.6c0.9,0.1,2.1,0.1,3.8,0.1c1.7,0,3,0,3.8-0.1c0.9-0.1,1.7-0.3,2.5-0.6c0.8-0.3,1.4-0.9,1.7-1.6 C692.3,180.7,692.4,179.7,692.4,178.5"></path> <rect id="XMLID_00000116235800556164017350000013409060393819142590_" x="707.5" y="146" class="st0" width="5.8" height="40.5"></rect> <path id="XMLID_00000091696812018321049560000016398918303106818727_" class="st0" d="M750.5,186.6h-5.8v-3.4c-0.6,2.7-4,4-10.3,4 c-4.2,0-7-0.7-8.6-2c-1.6-1.3-2.3-3.3-2.3-6v-20.5h5.8v20.3c0,0.7,0.1,1.3,0.2,1.7c0.1,0.5,0.4,0.9,0.8,1.4 c0.4,0.5,1.1,0.9,2.1,1.1c1,0.3,2.2,0.4,3.7,0.4c3.2,0,5.5-0.3,6.7-0.8c1.3-0.5,1.9-1.5,1.9-3v-21.1h5.8V186.6z"></path> <path id="XMLID_00000132798236480499049700000010932738947444566453_" class="st0" d="M780.3,186.7c-2.1,0.3-4.3,0.5-6.6,0.5 c-3.9,0-6.7-0.6-8.2-1.8c-1.6-1.2-2.3-3.5-2.3-6.9V162h-7v-3.4h7v-8.7h5.9v8.7h11.2v3.4h-11.2v16.7c0,2,0.4,3.3,1.3,4 c0.9,0.7,2.6,1,5.3,1c0.7,0,2.2-0.2,4.7-0.5V186.7z"></path> <path id="XMLID_00000070106194043431603490000002021680369046518703_" class="st0" d="M792.5,153.9h-5.8v-5.4h5.8V153.9z M792.5,186.6h-5.8v-28h5.8V186.6z"></path> <path id="XMLID_00000149372727612498156260000011672653630337609868_" class="st0" d="M830.4,168v9.7c0,1.7-0.2,3.2-0.7,4.4 c-0.5,1.2-1.1,2.1-1.8,2.8c-0.7,0.7-1.8,1.2-3.1,1.5c-1.4,0.3-2.7,0.6-3.9,0.6c-1.2,0.1-2.9,0.1-4.9,0.1c-2.6,0-4.6-0.1-6.1-0.2 c-1.5-0.2-2.9-0.5-4.3-1.1c-1.5-0.6-2.5-1.6-3.1-2.9c-0.6-1.3-0.9-3-0.9-5.2V168c0-1.9,0.2-3.4,0.7-4.7c0.5-1.3,1.1-2.3,1.8-3 c0.7-0.7,1.8-1.2,3.1-1.6c1.4-0.4,2.7-0.6,3.9-0.7c1.2-0.1,2.8-0.1,4.9-0.1s3.7,0,4.9,0.1c1.2,0.1,2.5,0.3,3.9,0.7 c1.4,0.4,2.4,0.9,3.1,1.6c0.7,0.7,1.3,1.7,1.8,3C830.2,164.6,830.4,166.1,830.4,168 M824.4,178.5v-11.3c0-2.6-0.6-4.2-1.8-4.8 c-1.2-0.6-3.4-0.9-6.7-0.9c-3.3,0-5.6,0.3-6.7,0.9c-1.2,0.6-1.8,2.2-1.8,4.8v11.3c0,1.2,0.2,2.2,0.5,3c0.3,0.7,0.9,1.3,1.7,1.6 c0.8,0.3,1.7,0.5,2.5,0.6c0.9,0.1,2.1,0.1,3.8,0.1c1.7,0,3,0,3.8-0.1c0.9-0.1,1.7-0.3,2.5-0.6c0.8-0.3,1.4-0.9,1.7-1.6 C824.3,180.7,824.4,179.7,824.4,178.5"></path> <linearGradient id="XMLID_00000027592342666841400110000006504443041123602850_" gradientUnits="userSpaceOnUse" x1="250.0569" y1="137.5686" x2="1012.7374" y2="137.5686"> <stop offset="0" style="stop-color:#0038B8;stop-opacity:0"></stop> <stop offset="4.487282e-02" style="stop-color:#0038B8;stop-opacity:8.962697e-02"></stop> <stop offset="0.5007" style="stop-color:#0038B8"></stop> <stop offset="0.9276" style="stop-color:#0038B8;stop-opacity:8.962697e-02"></stop> <stop offset="0.9696" style="stop-color:#0038B8;stop-opacity:0"></stop> </linearGradient> <rect id="XMLID_00000168812130791954792330000016040088948675719605_" x="250.1" y="135.3" style="fill:url(#XMLID_00000027592342666841400110000006504443041123602850_);" width="762.7" height="4.6"></rect> <path id="XMLID_00000129197535251787723800000008123494741333544857_" class="st0" d="M866.6,186.6h-5.8v-20.3 c0-0.7-0.1-1.3-0.2-1.7c-0.1-0.5-0.4-0.9-0.8-1.4c-0.4-0.5-1.1-0.8-2.1-1.1c-1-0.3-2.2-0.4-3.7-0.4c-3.4,0-5.7,0.3-6.9,1 c-1.2,0.7-1.8,1.9-1.8,3.6v20.3h-5.8v-28h5.8v3.4c0.6-2.7,4-4,10.3-4c4.2,0,7,0.7,8.6,2c1.6,1.3,2.3,3.3,2.3,6V186.6z"></path> </g> </g> </svg>